<?xml version="1.0" standalone="no"?>
<!DOCTYPE svg PUBLIC "-//W3C//DTD SVG 20010904//EN"
 "http://www.w3.org/TR/2001/REC-SVG-20010904/DTD/svg10.dtd">
<svg version="1.0" xmlns="http://www.w3.org/2000/svg"
 width="215.000000pt" height="215.000000pt" viewBox="0 0 215.000000 215.000000"
 preserveAspectRatio="xMidYMid meet">
<metadata>
Created by potrace 1.11, written by Peter Selinger 2001-2013
</metadata>
<g transform="translate(0.000000,215.000000) scale(0.100000,-0.100000)"
fill="#000000" stroke="none">
<path d="M602 2129 c-32 -21 -73 -22 -114 -4 -15 6 -18 2 -18 -18 0 -14 7 -32
15 -41 14 -13 12 -16 -20 -22 -19 -3 -44 -4 -55 -1 -27 7 -36 -10 -16 -32 9
-10 16 -20 16 -23 0 -4 -18 -38 -40 -76 -50 -86 -112 -146 -146 -139 -20 3
-22 2 -13 -14 7 -15 6 -19 -6 -19 -13 0 -14 -4 -4 -22 7 -12 21 -31 33 -41
l21 -18 -27 4 c-42 6 -34 -7 29 -50 47 -32 59 -46 64 -74 3 -19 11 -43 17 -54
6 -11 22 -63 36 -115 13 -52 28 -103 31 -113 7 -15 4 -17 -19 -11 -21 5 -33
-1 -62 -30 -36 -36 -37 -38 -32 -101 5 -56 14 -78 68 -172 35 -59 72 -118 83
-130 24 -27 59 -30 78 -7 11 14 19 3 62 -82 27 -54 61 -113 74 -131 22 -29 25
-43 26 -121 1 -91 -14 -152 -39 -152 -7 0 -15 4 -18 9 -3 5 -22 5 -43 1 -21
-5 -77 -15 -124 -24 -149 -27 -216 -53 -269 -102 -43 -40 -120 -164 -120 -193
0 -30 24 -3 60 67 57 112 85 143 70 80 -4 -18 -19 -56 -33 -85 -15 -29 -27
-57 -27 -63 0 -7 286 -10 895 -10 492 0 895 3 895 6 0 17 -54 155 -64 164 -7
5 -67 16 -135 24 -67 7 -125 16 -128 20 -3 3 7 21 23 40 22 26 37 35 61 35 39
1 187 -44 200 -62 5 -6 16 -39 23 -72 7 -33 19 -81 27 -107 13 -47 15 -48 54
-48 l41 0 -27 48 c-15 26 -38 61 -51 79 -24 32 -33 83 -14 83 14 0 67 -76 103
-147 29 -59 47 -78 47 -52 0 29 -77 153 -120 193 -38 36 -64 50 -131 70 -86
26 -262 58 -302 55 -60 -5 -64 2 -71 121 -4 71 5 98 53 165 17 22 49 79 72
127 40 80 44 85 57 67 8 -11 25 -19 42 -19 30 0 27 -4 134 174 40 67 48 89 53
145 5 62 4 69 -22 99 -16 19 -36 32 -50 32 -57 0 -67 23 -41 98 8 22 17 65 21
96 4 32 16 67 28 82 14 19 17 28 8 33 -20 13 -1 41 28 41 14 0 37 3 50 7 23 6
20 8 -25 28 l-49 22 40 20 c35 19 62 46 90 92 6 11 2 13 -24 8 l-32 -7 17 29
c19 33 13 61 -14 61 -32 0 -116 48 -157 90 l-39 40 49 1 50 0 -61 19 c-112 36
-145 73 -119 133 7 16 -20 17 -491 17 -489 0 -500 -1 -532 -21z m638 -324 c0
-20 7 -50 16 -68 47 -92 183 -226 294 -289 41 -24 48 -33 72 -102 15 -42 25
-76 23 -76 -2 0 -20 10 -40 22 -35 20 -45 21 -208 15 -182 -7 -228 -14 -205
-28 10 -7 9 -9 -5 -9 -10 0 -21 8 -25 18 -5 13 -8 11 -12 -13 -4 -23 -14 -32
-43 -43 -35 -14 -41 -13 -94 11 -46 21 -54 27 -39 33 39 15 -25 25 -200 31
l-172 6 -45 -26 c-24 -15 -47 -23 -51 -20 -14 14 -4 58 33 146 22 50 43 103
46 117 6 24 72 76 82 66 3 -3 -6 -16 -20 -30 l-25 -25 34 3 c23 2 62 25 126
73 145 109 255 170 343 193 43 11 81 22 83 25 17 16 32 2 32 -30z m-617 -535
c-49 -10 -83 -27 -83 -40 0 -6 -7 -10 -15 -10 -8 0 -15 6 -15 13 0 18 69 45
115 45 l40 0 -42 -8z m995 -10 c48 -22 50 -30 30 -137 -10 -57 -10 -67 6 -94
18 -30 18 -32 -9 -107 -48 -136 -130 -293 -185 -354 -48 -54 -55 -58 -95 -58
-43 0 -44 1 -60 48 -28 78 -29 79 -32 32 -6 -95 -15 -131 -39 -160 -22 -26
-33 -30 -74 -30 -30 0 -52 6 -60 15 -11 13 -15 13 -33 0 -42 -29 -135 -10
-152 32 -4 10 -9 55 -12 100 -3 45 -9 80 -13 78 -4 -3 -13 -24 -19 -47 -16
-62 -25 -72 -65 -72 -77 0 -180 146 -272 386 -31 80 -35 101 -30 149 3 30 10
66 15 80 8 20 10 15 10 -29 1 -47 5 -58 31 -82 41 -38 119 -55 250 -54 154 0
185 21 217 146 16 63 19 68 45 68 24 0 28 -6 43 -57 38 -130 59 -149 177 -159
122 -10 286 25 308 66 5 9 14 55 21 102 12 81 12 86 -8 107 -11 12 -40 28 -64
35 l-44 14 35 1 c19 0 54 -8 78 -19z m-653 -55 c30 -29 32 -70 7 -135 -11 -28
-27 -50 -43 -57 -40 -19 -157 -26 -224 -14 -85 16 -109 36 -113 97 -5 73 5
114 31 124 12 5 89 9 170 9 144 1 149 0 172 -24z m552 19 c37 -10 57 -107 34
-167 -15 -40 -88 -62 -201 -62 -121 0 -153 13 -174 69 -23 59 -21 121 4 146
18 18 33 20 168 20 81 0 157 -3 169 -6z m-1089 -31 c3 -18 -2 -23 -17 -23 -29
0 -61 -35 -61 -65 0 -26 28 -91 35 -83 2 2 -2 22 -10 43 -16 46 -3 78 33 83
20 3 21 0 15 -46 -3 -28 -1 -52 4 -55 6 -4 8 4 5 21 -8 45 4 21 36 -70 30 -86
29 -107 -3 -94 -8 3 -15 1 -15 -3 0 -12 27 -21 44 -15 7 3 16 -2 20 -12 18
-48 -34 -83 -65 -43 -10 13 -19 27 -19 31 0 4 -26 49 -57 100 -54 86 -58 96
-58 154 0 78 21 107 74 102 29 -2 37 -8 39 -25z m1408 6 c14 -16 19 -36 19
-83 -1 -57 -5 -69 -67 -176 -36 -63 -73 -119 -81 -124 -21 -13 -59 20 -55 48
2 16 9 20 30 18 19 -2 30 4 38 18 10 19 10 20 -9 8 -15 -9 -23 -10 -32 -1 -8
8 -6 27 9 75 12 34 24 80 28 102 5 32 8 36 16 21 6 -9 8 -27 5 -41 -2 -13 0
-21 4 -18 13 8 11 78 -3 92 -9 9 -6 12 15 12 17 0 32 -9 42 -24 15 -22 15 -28
0 -62 -8 -20 -13 -39 -11 -41 8 -8 36 55 36 82 0 31 -33 65 -64 65 -19 0 -22
4 -18 25 4 21 10 25 42 25 25 0 43 -7 56 -21z m-153 -159 c-3 -12 -8 -19 -11
-16 -5 6 5 36 12 36 2 0 2 -9 -1 -20z m-880 -611 c56 -74 95 -101 190 -130
123 -38 260 -4 328 81 19 24 53 64 76 89 l43 46 0 -65 c1 -80 18 -131 48 -146
22 -11 21 -12 -36 -65 -32 -30 -84 -67 -117 -83 -62 -30 -178 -55 -260 -56
-45 0 -53 4 -99 47 -41 40 -46 43 -26 15 l22 -33 -38 16 c-58 25 -95 35 -131
35 -25 0 -45 12 -93 57 -54 50 -59 58 -42 64 24 9 42 76 42 160 0 61 0 61 23
47 12 -8 44 -44 70 -79z m-183 -124 c0 -9 -72 -35 -81 -29 -16 10 -10 23 14
27 34 7 67 8 67 2z m1009 -11 c3 -3 -27 -37 -67 -76 l-71 -72 -26 24 -25 24
27 22 c25 20 29 20 50 6 13 -8 27 -11 31 -7 4 4 -3 14 -15 22 -33 22 -29 37 7
30 31 -7 42 6 15 17 -8 3 -15 11 -15 17 0 8 13 9 42 5 23 -4 44 -9 47 -12z
m-1096 -39 l28 -33 -53 -11 c-29 -6 -97 -18 -151 -28 l-99 -18 -24 -77 c-14
-43 -29 -78 -35 -78 -6 0 -6 6 0 18 5 9 17 56 26 104 l18 87 44 17 c68 26 165
53 193 53 16 0 35 -12 53 -34z m114 9 c2 -6 -10 -17 -27 -24 -24 -10 -33 -10
-46 1 -13 11 -12 14 13 25 32 15 55 14 60 -2z m24 -66 c-25 -16 -34 -18 -46
-8 -22 18 -19 27 13 38 17 6 34 6 46 0 17 -9 16 -12 -13 -30z m56 -14 c2 -5
-3 -18 -11 -29 -12 -17 -17 -18 -42 -6 l-28 12 30 20 c30 19 45 20 51 3z m725
-21 c10 -9 18 -19 18 -23 0 -13 -154 -78 -227 -95 -102 -25 -290 -17 -388 16
-45 16 -70 29 -70 39 0 19 22 18 105 -6 84 -24 230 -24 327 -1 72 17 178 61
189 78 8 14 26 11 46 -8z m-556 -20 c27 -9 42 -19 33 -21 -9 -1 -38 6 -65 17
-60 24 -36 27 32 4z m-135 -4 c16 -8 18 -13 9 -24 -9 -11 -17 -11 -36 -3 -18
9 -21 14 -13 25 14 16 15 16 40 2z"/>
<path d="M1002 1280 c-8 -13 -8 -20 -2 -20 6 0 13 7 17 15 9 24 -1 27 -15 5z"/>
<path d="M937 883 c-13 -12 -7 -40 11 -54 15 -13 16 -12 3 3 -7 10 -11 27 -8
38 5 21 4 24 -6 13z"/>
<path d="M990 875 c0 -8 4 -15 10 -15 5 0 7 7 4 15 -4 8 -8 15 -10 15 -2 0 -4
-7 -4 -15z"/>
<path d="M1202 876 c4 -5 2 -20 -3 -35 -9 -24 -8 -25 6 -7 18 24 19 33 3 42
-7 4 -10 4 -6 0z"/>
<path d="M975 840 c3 -5 14 -10 24 -10 10 0 26 -9 36 -20 10 -11 28 -20 40
-20 12 0 30 9 40 20 10 11 26 20 37 20 10 0 18 5 18 10 0 18 -28 10 -56 -15
-15 -14 -31 -25 -37 -25 -5 0 -22 11 -39 25 -29 24 -76 35 -63 15z"/>
<path d="M1235 680 c-38 -6 -39 -6 -10 -11 l30 -4 -22 -22 c-21 -21 -32 -23
-132 -23 -108 0 -161 10 -161 30 0 6 45 11 118 12 l117 2 -145 5 c-80 4 -146
5 -148 5 -2 -1 13 -15 34 -30 27 -21 53 -30 103 -36 158 -17 216 -5 246 52 9
17 14 29 13 29 -2 -1 -21 -5 -43 -9z"/>
<path d="M1073 583 c-16 -3 -23 -11 -23 -28 0 -33 20 -75 36 -75 21 0 46 46
42 77 -3 28 -15 34 -55 26z"/>
<path d="M690 1132 c0 -5 -10 -14 -22 -20 -29 -13 -8 -15 26 -2 28 10 35 30
11 30 -8 0 -15 -4 -15 -8z"/>
<path d="M902 1104 c9 -9 21 -13 27 -10 20 13 11 26 -16 26 -25 0 -26 -1 -11
-16z"/>
<path d="M1425 1130 c-3 -5 2 -13 12 -16 10 -3 28 -10 41 -15 29 -11 32 -11
32 0 0 5 -15 15 -32 22 -18 7 -36 14 -40 16 -3 2 -9 -1 -13 -7z"/>
<path d="M1230 1110 c-12 -8 -12 -10 2 -15 10 -4 27 0 40 9 l22 16 -24 0 c-14
0 -32 -4 -40 -10z"/>
<path d="M1300 272 c-14 -20 -50 -64 -80 -96 -62 -67 -37 -60 34 9 41 39 84
110 74 120 -2 2 -15 -13 -28 -33z"/>
<path d="M900 244 c0 -6 7 -19 16 -30 14 -18 14 -18 3 6 -14 31 -19 36 -19 24z"/>
</g>
</svg>
